<svg id="Trazado_29460" data-name="Trazado 29460" xmlns="http://www.w3.org/2000/svg" width="47.811" height="71.717" viewBox="0 0 47.811 71.717">
  <path id="Trazado_29460-2" data-name="Trazado 29460" d="M52.115-40.043H7.345v-14.97H21.134V-88.889a42.348,42.348,0,0,1-13.17,2.9L6.8-85.908,4.3-99.049l1.185-.307A40.376,40.376,0,0,0,24.867-111.3l.392-.461H39.891v56.747H52.115ZM9.965-42.651H49.494V-52.4H37.27v-56.747h-10.8A43.529,43.529,0,0,1,7.33-97.161l1.611,8.476A37.261,37.261,0,0,0,21.88-92.068l1.875-.89V-52.4H9.965Z" transform="translate(-4.304 111.76)" fill="#fff"/>
</svg>
